<?xml version="1.0" ?><!DOCTYPE svg  PUBLIC '-//W3C//DTD SVG 1.1//EN'  'http://www.w3.org/Graphics/SVG/1.1/DTD/svg11.dtd'><svg height="512px" style="enable-background:new 0 0 512 512;" version="1.1" viewBox="0 0 512 512" width="512px" xml:space="preserve" xmlns="http://www.w3.org/2000/svg" xmlns:xlink="http://www.w3.org/1999/xlink"><g id="形状_1_5_" style="enable-background:new    ;"><g id="形状_1"><g><path d="M460.843,256.389c-2.741-2.354-6.728-4.306-12.478-6.07     c-4.792-1.598-7.482-2.792-9.266-4.104c-1.918-1.43-2.69-2.858-2.69-4.978c0-3.631,3.296-7.297,10.728-7.313     c5.752,0,9.552,1.547,11.703,2.857l1.245,0.774l4.053-6.693l-1.346-0.722c-3.952-2.152-9.146-3.348-14.611-3.348     c-6.122,0-11.401,1.53-15.201,4.423c-3.634,2.758-5.65,6.542-5.685,10.661c0,3.564,1.581,6.625,4.642,9.231     c2.825,2.404,6.861,4.405,12.409,6.086c4.608,1.531,7.651,2.943,9.518,4.508c1.867,1.563,2.69,3.312,2.69,5.648     c0,5.012-5.062,8.122-13.216,8.155c-5.92,0-10.998-2.102-13.521-3.346l-1.277-0.621l-0.671,1.227l-2.911,5.565l1.329,0.657     c4.81,2.421,10.728,3.748,16.647,3.748c6.59,0,12.206-1.479,16.292-4.305c4.122-2.858,6.424-7.011,6.424-11.686v-0.151     C465.65,262.542,464.02,259.112,460.843,256.389z M475.925,228.089l0.067,53.27h8.743l-0.033-53.27H475.925z M248.955,226.811     c-15.47,0-31.073,9.804-31.073,31.681l-0.067,41.195h8.778c0,0-0.034-24.146-0.034-26.669c5.112,6.021,13.384,9.652,22.615,9.652     c17.372,0,31.529-12.544,31.529-27.964C280.703,239.052,266.747,226.811,248.955,226.811z M249.056,275.372     c-14.375,0-22.951-10.408-22.951-20.464c0-10.224,8.542-20.8,22.799-20.8c13.117,0,23.003,8.945,23.003,20.8     C271.908,265.064,264.055,275.372,249.056,275.372z M318.469,226.692c-15.168,0-31.309,9.804-31.309,27.947     c0,4.725,1.344,9.299,4.118,13.94c5.078,8.507,15.959,14.022,27.729,14.022c11.436,0,22.195-5.498,27.408-14.022l1.582-2.944     h-9.552c-3.8,5.651-11.871,9.651-19.64,9.651c-10.357,0-18.883-5.783-21.96-14.797c6.573-2.639,12.745-3.245,16.814-3.245     c2.421,0,5.38,0.403,8.845,0.875c4.203,0.556,9.012,1.193,13.821,1.193c3.852,0,7.735-0.402,11.335-1.58     c2.354-0.925,3.026-2.236,2.572-5.027C349.207,246.618,343.909,226.692,318.469,226.692z M336.479,251.915     c-2.927,0-6.457-0.453-10.309-0.941c-4.473-0.571-9.483-1.211-14.462-1.211c-0.856,0-1.713,0.017-2.589,0.051     c-4.202,0.201-9.028,1.193-12.914,2.556c1.548-13.401,13.976-18.361,22.23-18.361c18.159,0,22.162,14.157,22.767,16.999     l0.035,0.269C339.959,251.747,338.345,251.915,336.479,251.915z M388.117,226.811c-15.47,0-31.108,9.804-31.108,31.681     l-0.034,41.195h8.778c0,0-0.033-24.146-0.033-26.669c5.111,6.021,13.384,9.652,22.599,9.652     c17.421,0,31.562-12.544,31.562-27.964C419.88,239.052,405.907,226.811,388.117,226.811z M388.219,275.372     c-14.361,0-22.952-10.408-22.952-20.464c0-10.224,8.523-20.8,22.817-20.8c13.098,0,23.002,8.945,23.002,20.8     C411.086,265.064,403.233,275.372,388.219,275.372z M486.081,216.554c0-3.33-2.69-6.02-5.987-6.02c-3.329,0-6.02,2.689-6.02,6.02     c0,3.312,2.69,6.02,6.02,6.02C483.391,222.573,486.081,219.865,486.081,216.554z" style="fill-rule:evenodd;clip-rule:evenodd;fill:#002C6A;"/></g></g></g><g id="形状_1_4_" style="enable-background:new    ;"><g id="形状_1_1_"><g><path d="M172.885,212.147c1.614,5.246,2.457,10.796,2.457,16.547     c0,18.513-9.097,34.79-22.937,45.014c-24.114,17.739-59.24,17.773-107.716,33.041c14.611,17.538,36.589,28.669,61.207,28.669     c44.087,0,79.838-35.731,79.838-79.82C185.733,239.59,180.99,224.675,172.885,212.147z" style="fill-rule:evenodd;clip-rule:evenodd;fill:#004593;"/></g></g></g><g id="形状_1_3_" style="enable-background:new    ;"><g id="形状_1_2_"><g><path d="M105.895,175.743c-44.09,0-79.805,35.749-79.805,79.871     c0,17.688,4.877,27.795,12.981,40.71c54.481-14.814,98.67-51.101,114.71-104.624C140.45,181.679,123.87,175.743,105.895,175.743z     " style="fill-rule:evenodd;clip-rule:evenodd;fill:#E6002D;"/></g></g></g></svg>